/* XPM */
static char *_e4919e9251347bbeb261d3550949b21hPaRKVMpba9NRFJa[] = {
/* columns rows colors chars-per-pixel */
"64 64 10 1 ",
"  c black",
". c #501000",
"X c #484858",
"o c #903828",
"O c #E06848",
"+ c #40B088",
"@ c #70C8A0",
"# c #88D8B8",
"$ c #C0C0D0",
"% c #F8F8F8",
/* pixels */
"@@@@@@@@@@@@@@@@@@@@@@@@@@@@@@@@@@@@@@@@@@@@@@@@@@@@@@@@@@@@@@@@",
"@@@@@@@@@@@@@@@@@@@@@@@@@@@@@@@@@@@@@@@@@@@@@@@@@@@@@@@@@@@@@@@@",
"@@@@@@@@@@@@@@@@@@@@@@@@@@@@@@@@@@@@@@@@@@@@@@@@@@@@@@@@@@@@@@@@",
"@@@@@@@@@@@@@@@@@@@@@@@@@@@@@@@@@@@@@@@@@@@@@@@@@@@@@@@@@@@@@@@@",
"@@@@@@@@@@@@@@@@@@@@@@@@@@@@@@@@@@@@@@@@@@@@@@@@@@@@@@@@@@@@@@@@",
"@@@@@@@@@@@@@@@@@@@@@@@@@@@@@@@@@@@@@@@@@@@@@@@@@@@@@@@@@@@@@@@@",
"@@@@@@@@@@@@@@@@@@@@@@@@@@@@@@@@@@@@@@@@@@@@@@@@@@@@@@@@@@@@@@@@",
"@@@@@@@@@@@@@@@@@@@@@@@@@@@@@@@@@@@@@@@@@@@@@@@@@@@@@@@@@@@@@@@@",
"@@@@@@@@@@@@@@@@@@@@@@@@@@@@@@@@@@@@@@@@@@@@@@@@@@@@@@@@@@@@@@@@",
"@@@@@@@@@@@@@@@@@@@@@@@@@@@@@@@@@@@@@@@@@@@@@@@@@@@@@@@@@@@@@@@@",
"@@@@@@@@@@@@@@@@@@@@@@@@@@@@@@@@@@@@@@@@@@@@@@@@@@@@@@@@@@@@@@@@",
"@@@@@@@@@@@@@@@@@@@@@@@@@@@@@@@@@@@@@@@@@@@@@@@@@@@@@@@@@@@@@@@@",
"@@@@@@@@@@@@@@@@@@@@++++@@@@@@@@@@@@@@@@@@@@@@@@@@@@@@@@@@@@@@@@",
"@@@@@@@@@@@@@@@@@@@@++++@@@@@@@@@@@@@@@@@@@@@@@@@@@@@@@@@@@@@@@@",
"@@@@@@@@@@@@@@@@@@@@++++@@@@@@@@@@@@@@@@@@@@@@@@@@@@@@@@@@@@@@@@",
"@@@@@@@@@@@@@@@@@@@@++++@@@@@@@@@@@@@@@@@@@@@@@@@@@@@@@@@@@@@@@@",
"@@@@@@@@++++@@@@@@@@++++@@@@@@@@++++@@@@@@@@@@@@@@@@@@@@@@@@@@@@",
"@@@@@@@@++++@@@@@@@@++++@@@@@@@@++++@@@@@@@@@@@@@@@@@@@@@@@@@@@@",
"@@@@@@@@++++@@@@@@@@++++@@@@@@@@++++@@@@@@@@@@@@@@@@@@@@@@@@@@@@",
"@@@@@@@@++++@@@@@@@@++++@@@..........@@@@@@@@@@@@@@@@@@@@@@@@@@@",
"@@@@@@@@@@@@++++@@@@@@@@@@@..........@@@@@@@@@@@@@@@@@@@@@@@@@@@",
"@@@@@@@@@@@@++++@@@@@@@@@@@..........@@@@@@@@@@@@@@@@@@@@@@@@@@@",
"@@@@@@@@@@@@++++@@@@@@@@...OOOOOOOOOO...@@@@@@@@@@@@@@@@@@@@@@@@",
"@@@@@@@@@@@@++++@@@@@@@@...OOOOOOOOOO...@@@@@@@@@@@@@@@@@@@@@@@@",
"@@@@@@@@@@@@@@@@@@@@@@..OOO%%OOOoooooOOO..@@@@@@@@@@@@@@@@@@@@@@",
"@@@@@@@@@@@@@@@@@@@@@@..OOO%%OOOoooooOOO..@@@@@@@@@@@@@@@@@@@@@@",
"@@@@@@@@@@@@@@@@@@@@@@..OOO%%OOOoooooOOO..@@@@@@@@@@@@@@@@@@@@@@",
"@@@@@@@@@@@@@@@@@@@...OOoooOOOOOooooooooOO...@@@@@@@@@@@@@@@@@@@",
"@@@@@@@@@@@@@@@@@@@...OOoooOOOOOooooooooOO...@@@@@@@@@@@@@@@@@@@",
"@@@@@@@@@@@@@@@@@@@...OOoooOOOOOooooooooOO...@@@@@@@@@@@@@@@@@@@",
"@@@@@@@@@@@@@@@@@@@   OOooooo      oooooOO   @@@@@@@@@@@@@@@@@@@",
"@@@@@@@@@@@@@@@@@@@   OOooooo      oooooOO   @@@@@@@@@@@@@@@@@@@",
"@@@@@@@@@@@@@@@@@@@XXX  ooo  $$$$$$  ooo  XXX@@@@@@@@@@@@@@@@@@@",
"@@@@@@@@@@@@@@@@@@@XXX  ooo  $$$$$$  ooo  XXX@@@@@@@@@@@@@@@@@@@",
"@@@@@@@@@@@@@@@@@@@XXX  ooo  $$$$$$  ooo  XXX@@@@@@@@@@@@@@@@@@@",
"@@@@@@@@@@@@@@@@@@@XXX%%     $$$$$$     $$XXX@@@@@@@@@@@@@@@@@@@",
"@@@@@@@@@@@@++++@@@XXX%%     $$$$$$     $$XXX@@@@@@@@@@@@@@@@@@@",
"@@@@@@@@@@@@++++@@@@@@XX%%%%%      %%%%%XX@@@@@@@@@@@@@@@@@@@@@@",
"@@@@@@@@@@@@++++@@@@@@XX%%%%%      %%%%%XX@@@@@@@@@@@@@@@@@@@@@@",
"@@@@@@@@@@@@++++@@@@@@XX%%%%%      %%%%%XX@@@@@@@@@@@@@@@@@@@@@@",
"++++@@@@@@@@++++@@@@@@@@XXX$$%%%%%%$$XXX@@@@@@@@@@@@@@@@@@@@@@@@",
"++++@@@@@@@@++++@@@@@@@@XXX$$%%%%%%$$XXX@@@@@@@@@@@@@@@@@@@@@@@@",
"++++@@@@@@@@++++@@@@@@@@XXX$$%%%%%%$$XXX@@@@@@@@@@@@@@@@@@@@@@@@",
"++++@@@@@@@@++++@@@@@@@@+++XXXXXXXXXX@@@@@@@@@@@@@@@@@@@@@@@@@@@",
"@@@@++++@@@@@@@@@@@@++++@@@XXXXXXXXXX@@@@@@@@@@@@@@@@@@@@@@@@@@@",
"@@@@++++@@@@@@@@@@@@++++@@@@@@@@@@@@@@@@@@@@@@@@@@@@@@@@@@@@@@@@",
"@@@@++++@@@@@@@@@@@@++++@@@@@@@@@@@@@@@@@@@@@@@@@@@@@@@@@@@@@@@@",
"@@@@++++@@@@@@@@@@@@++++@@@@@@@@@@@@@@@@@@@@@@@@@@@@@@@@@@@@@@@@",
"@@@@@@@@@@@@@@@@@@@@@@@@@@@@@@@@@@@@@@@@@@@@@@@@@@@@@@@@@@@@@@@@",
"@@@@@@@@@@@@@@@@@@@@@@@@@@@@@@@@@@@@@@@@@@@@@@@@@@@@@@@@@@@@@@@@",
"@@@@@@@@@@@@@@@@@@@@@@@@@@@@@@@@@@@@@@@@@@@@@@@@@@@@@@@@@@@@@@@@",
"@@@@@@@@@@@@@@@@@@@@@@@@@@@@@@@@@@@@@@@@@@@@@@@@@@@@@@@@@@@@@@@@",
"@@@@@@@@@@@@@@@@@@@@@@@@@@@@@@@@@@@@@@@@@@@@@@@@####@@@@@@@@@@@@",
"@@@@@@@@@@@@@@@@@@@@@@@@@@@@@@@@@@@@@@@@@@@@@@@@####@@@@@@@@@@@@",
"@@@@@@@@@@@@@@@@@@@@@@@@@@@@@@@@@@@@@@@@@@@@@@@@####@@@@@@@@@@@@",
"@@@@@@@@@@@@@@@@@@@@@@@@@@@@@@@@@@@@@@@@@@@@@@@@####@@@@@@@@@@@@",
"@@@@@@@@@@@@@@@@@@@@@@@@@@@@@@@@@@@@####@@@@@@@@####@@@@@@@@####",
"@@@@@@@@@@@@@@@@@@@@@@@@@@@@@@@@@@@@####@@@@@@@@####@@@@@@@@####",
"@@@@@@@@@@@@@@@@@@@@@@@@@@@@@@@@@@@@####@@@@@@@@####@@@@@@@@####",
"@@@@@@@@@@@@@@@@@@@@@@@@@@@@@@@@@@@@####@@@@@@@@####@@@@@@@@####",
"@@@@@@@@@@@@@@@@@@@@@@@@@@@@@@@@@@@@@@@@####@@@@@@@@@@@@####@@@@",
"@@@@@@@@@@@@@@@@@@@@@@@@@@@@@@@@@@@@@@@@####@@@@@@@@@@@@####@@@@",
"@@@@@@@@@@@@@@@@@@@@@@@@@@@@@@@@@@@@@@@@####@@@@@@@@@@@@####@@@@",
"@@@@@@@@@@@@@@@@@@@@@@@@@@@@@@@@@@@@@@@@####@@@@@@@@@@@@####@@@@"
};
