/* XPM */
static char *_93bf58cbbaa4ec782c03ea4df6389cbi0DrAwdBtFbiRx6T[] = {
/* columns rows colors chars-per-pixel */
"64 64 144 2 ",
"   c black",
".  c #00000B",
"X  c #120000",
"o  c #290000",
"O  c #380000",
"+  c #000020",
"@  c #00002E",
"#  c #000035",
"$  c #000038",
"%  c #130036",
"&  c #420000",
"*  c #6B0023",
"=  c #6E0028",
"-  c #740025",
";  c #7A0024",
":  c #72002A",
">  c #7B0028",
",  c #7C0631",
"<  c #060258",
"1  c #260655",
"2  c #232357",
"3  c #00056E",
"4  c #001E66",
"5  c #141E6B",
"6  c #1D1D6C",
"7  c #291667",
"8  c #241C66",
"9  c #281865",
"0  c #261E6C",
"q  c #2C1D6C",
"w  c #35166E",
"e  c #331A6D",
"r  c #381D69",
"t  c #201F70",
"y  c #291D75",
"u  c #351E70",
"i  c #1A2464",
"p  c #002B73",
"a  c #142574",
"s  c #1D2072",
"d  c #202565",
"f  c #24216C",
"g  c #2A216A",
"h  c #242171",
"j  c #2E2373",
"k  c #2E277F",
"l  c #B70E00",
"z  c #B91308",
"x  c #BF0B1B",
"c  c #830132",
"v  c #CC0806",
"b  c #CE0D0D",
"n  c #CB130E",
"m  c #D50010",
"M  c #C41714",
"N  c #CA1314",
"B  c #C41915",
"V  c #D71C17",
"C  c #DF2A0C",
"Z  c #C52311",
"A  c #CB4B00",
"S  c #F54E00",
"D  c #FF5900",
"F  c #FF6B00",
"G  c #FF6D0F",
"H  c #FF7100",
"J  c #FF7D00",
"K  c #FF6A2A",
"L  c #C84845",
"P  c #D34F4C",
"I  c #E44740",
"U  c #F18100",
"Y  c #FF9300",
"T  c #FF9C00",
"R  c #FFA000",
"E  c #FCB900",
"W  c #FFBC11",
"Q  c #FFBE22",
"!  c #FFC100",
"~  c #FACA00",
"^  c #F4C91B",
"/  c #FDC62A",
"(  c #FFD137",
")  c #FFDB32",
"_  c #FFD857",
"`  c #FFFF44",
"'  c #FFFF48",
"]  c #FFFF5C",
"[  c #FFFF63",
"{  c #FFFF6F",
"}  c #2F2682",
"|  c #2F2981",
" . c #352781",
".. c #322881",
"X. c #00469D",
"o. c #0046A3",
"O. c #074EAB",
"+. c #134CA5",
"@. c #1C4EA4",
"#. c #154EAB",
"$. c #1A4EAC",
"%. c #1553AD",
"&. c #1954A8",
"*. c #0052B2",
"=. c #2449AA",
"-. c #2154AF",
";. c #3966BD",
":. c #306DBB",
">. c #5D4EA5",
",. c #5F59AC",
"<. c #4D5FB6",
"1. c #6857A8",
"2. c #4B6ABC",
"3. c #536FBF",
"4. c #7365AA",
"5. c #1F67C7",
"6. c #1B68C6",
"7. c #2568C9",
"8. c #3B6FC7",
"9. c #566BC2",
"0. c #4372C1",
"q. c #7772C4",
"w. c #40B088",
"e. c #70C8A0",
"r. c #00A5D9",
"t. c #00ADD8",
"y. c #00ABE1",
"u. c #00B2E0",
"i. c #4C9BEB",
"p. c #5296E7",
"a. c #3DC8FF",
"s. c #56C2FF",
"d. c #5CFFFF",
"f. c #6AEDFF",
"g. c #66F4FF",
"h. c #6BF5FF",
"j. c #88D8B8",
"k. c #9DFFFF",
"l. c #BBFFFF",
"z. c #EAFDCE",
"x. c #C7FFFF",
"c. c #FFFFE1",
"v. c #FEFEEA",
"b. c white",
/* pixels */
"e.e.e.e.e.e.e.e.e.e.e.e.e.e.e.e.e.e.e.e.e.e.e.e.e.e.e.e.e.e.e.e.e.e.e.e.e.e.e.e.e.e.e.e.e.e.e.e.e.e.e.e.e.e.e.e.e.e.e.e.e.e.e.e.",
"e.e.e.e.e.e.e.e.e.e.e.e.e.e.e.e.e.e.e.e.e.e.e.e.e.e.e.e.e.e.e.e.e.e.e.e.e.e.e.e.e.e.e.e.e.e.e.e.e.e.e.e.e.e.e.e.e.e.e.e.e.e.e.e.",
"e.e.e.e.e.e.e.e.e.e.e.e.e.e.e.e.e.e.e.e.e.e.e.e.e.e.e.e.e.e.e.e.e.e.e.e.e.e.e.e.e.e.e.e.e.e.e.e.e.e.e.e.e.e.e.e.e.e.e.e.e.e.e.e.",
"e.e.e.e.e.e.e.e.e.e.e.e.e.e.e.e.e.e.e.e.e.e.e.e.e.e.e.e.e.e.e.e.e.e.e.e.e.e.e.e.e.e.e.e.e.e.e.e.e.e.e.e.e.e.e.e.e.e.e.e.e.e.e.e.",
"e.e.e.e.e.e.e.e.e.e.e.e.e.e.e.e.e.e.e.e.e.e.e.e.e.e.e.e.e.e.e.e.e.e.e.e.e.e.e.e.e.e.e.e.e.e.e.e.e.e.e.e.e.e.e.e.e.e.e.e.e.e.e.e.",
"e.e.e.e.e.e.e.e.e.e.e.e.e.e.e.e.e.e.e.e.e.e.e.e.e.e.e.e.e.e.e.e.e.e.e.e.e.e.e.e.e.e.e.e.e.e.e.e.e.e.e.e.e.e.e.e.e.e.e.e.e.e.e.e.",
"e.e.e.e.e.e.e.e.e.e.e.e.e.e.e.e.e.e.e.e.e.e.e.e.e.e.e.e.e.e.e.e.e.e.e.e.e.e.e.e.e.e.e.e.e.e.e.e.e.e.e.e.e.e.e.e.e.e.e.e.e.e.e.e.",
"e.e.e.e.e.e.e.e.e.e.e.e.e.e.e.e.e.e.e.e.e.e.e.e.e.e.e.e.e.e.e.e.e.e.e.e.e.e.e.e.e.e.e.e.e.e.e.e.e.e.e.e.e.e.e.e.e.e.e.e.e.e.e.e.",
"e.e.e.e.e.e.e.e.e.e.e.e.e.e.e.e.e.e.e.e.e.e.e.e.e.e.e.e.e.e.e.e.e.e.e.e.e.e.e.e.e.e.e.e.e.e.e.e.e.e.e.e.e.e.e.e.e.e.e.e.e.e.e.e.",
"e.e.e.e.e.e.e.e.e.e.e.e.e.e.e.e.e.e.e.e.e.e.e.e.e.e.e.e.e.e.e.e.e.e.e.e.e.e.e.e.e.e.e.e.e.e.e.e.e.e.e.e.e.e.e.e.e.e.e.e.e.e.e.e.",
"e.e.e.e.e.e.e.e.e.e.e.e.e.e.e.e.e.e.e.e.e.e.e.e.e.e.e.e.e.e.e.e.e.e.e.e.e.e.e.e.e.e.e.e.e.e.e.e.e.e.e.e.e.e.e.e.e.e.e.e.e.e.e.e.",
"e.e.e.e.e.e.e.e.e.e.e.e.e.e.e.e.e.e.e.e.e.e.e.e.e.e.e.e.e.e.e.e.e.e.e.e.e.e.e.e.e.e.e.e.e.e.e.e.e.e.e.e.e.e.e.e.e.e.e.e.e.e.e.e.",
"e.e.e.e.e.e.e.e.e.e.e.e.e.e.e.e.e.e.e.e.w.w.w.w.e.e.e.e.e.e.e.e.e.e.e.e.e.e.e.e.e.e.e.e.e.e.e.e.e.e.e.e.e.e.e.e.e.e.e.e.e.e.e.e.",
"e.e.e.e.e.e.e.e.e.e.e.e.e.e.e.e.e.X z M L l = * * e.e.e.e.e.e.e.e.e.e.e.e.e.e.e.e.e.e.e.e.e.e.e.e.e.e.e.e.e.e.e.e.e.e.e.e.e.e.e.",
"e.e.e.e.e.e.e.e.e.e.e.e.e.e.e.e.e.& P Q E ( K , , e.e.e.e.e.e.e.e.e.e.e.e.e.e.e.e.e.e.e.e.e.e.e.e.e.e.e.e.e.e.e.e.e.e.e.e.e.e.e.",
"e.e.e.e.e.e.e.e.e.e.e.e.e.e.e.e.e.O I ) ~ ) D > > e.e.e.e.e.e.e.e.e.e.e.e.e.e.e.e.e.e.e.e.e.e.e.e.e.e.e.e.e.e.e.e.e.e.e.e.e.e.e.",
"e.e.e.e.e.e.e.e.w.w.w.w.e.e.e.e.e.e.e.l F T = w.e.e.e.e.e.e.e.e.w.w.w.w.e.e.e.e.e.e.e.e.e.e.e.e.e.e.e.e.e.e.e.e.e.e.e.e.e.e.e.e.",
"e.e.e.e.e.e.e.e.w.w.w.w.e.e.e.e.e.e.e.f f p i h f e.e.0 0 q y e.w.w.w.w.e.e.d t s s s 0 h k e.e.e.e.e.e.e.e.e.e.e.e.e.e.e.e.e.e.",
"e.e.e.e.e.e.e.e.w.w.w.w.e.e.e.e.e.e.e.f k.x.9.9.3.+   8.0.<.7               0 2.0.0.:.l.4 } e.e.e.e.e.e.e.e.e.e.e.e.e.e.e.e.e.e.",
"e.e.e.e.e.e.e.e.w.w.w.w.e.e.e.e.e.e.e.f u.a.*.*.*.< j O.#.8.0 q q e w q j u 0 o.#.#.=.r.# ..e.e.e.e.e.e.e.e.e.e.e.e.e.e.e.e.e.e.",
"e.e.e.e.e.e.e.e.e.e.e.e.w.w.w.w.e.e.e.h 5 p f 0 0 0 j $.+.;.q &.&.+.$.%.h.p.w o.#.#.=.r.$ | e.e.e.e.e.e.e.e.e.e.e.e.e.e.e.e.e.e.",
"e.e.e.e.e.e.e.e.e.e.e.e.w.w.w.w.e.e.e.h 5 p f 0 y g j $.+.8.q @.-.#.$.%.h.i.w o.#.#.=.y.# | e.e.e.e.e.e.e.e.e.e.e.e.e.e.e.e.e.e.",
"e.e.e.e.e.e.e.e.e.e.e.e.w.w.w.w.e.e.e.N ^ { : e.e.  y #.#.8.7 =.O.#.$.%.g.i.w o.$.$.=.r.$  .e.e.e.e.e.e.e.e.e.e.e.e.e.e.e.e.e.e.",
"e.e.e.e.e.e.e.e.e.e.e.e.w.w.w.w.e.e.e.N E ' : e.e.  u #.+.;.8 +.#.$.$.%.g.i.w o.#.#.=.r.$  .e.e.e.e.e.e.e.e.e.e.e.e.e.e.e.e.e.e.",
"e.e.e.e.e.e.e.e.e.e.e.e.e.e.e.e.e.e.e.N v.b.- e.e.  j $.+.8.7 $.$.#.$.%.h.i.w o.#.#.=.r.#  .e.e.e.e.e.e.e.e.e.e.e.e.e.e.e.e.e.e.",
"e.e.e.e.e.e.e.e.e.e.e.e.e.e.e.e.e.e.e.N c.b.- e.e.  j &.+.;.9 #.$.$.$.%.h.i.w o.$.$.=.r.# 1.e.e.e.e.e.e.e.e.e.e.e.e.e.e.e.e.e.e.",
"e.e.e.e.e.e.e.e.e.e.e.e.e.e.e.e.e.e.e.%     e       j $.+.;.9 $.#.#.%.%.g.i.w o.#.#.=.r.@ >.e.e.e.e.e.e.e.e.e.e.e.e.e.e.e.e.e.e.",
"e.e.e.e.e.e.e.e.e.e.e.e.e.e.e.e.e.e.e.f 6 d 0 0 g 0 y -.+.;.9 $.#.#.$.%.g.i.w o.$.$.=.r.1 >.e.e.e.e.e.e.e.e.e.e.e.e.e.e.e.e.e.e.",
"e.e.e.e.e.e.e.e.e.e.e.e.e.e.e.e.e.e.e.f t.s.&.@.@.< k =.=.;.9 $.#.#.+.&.g.i.e X.-.=.=.y.i ,.e.e.e.e.e.e.e.e.e.e.e.e.e.e.e.e.e.e.",
"e.e.e.e.e.e.e.e.e.e.e.e.e.e.e.e.e.e.e.8 0 u 9 q u e.e.r r q 8 $.#.+.#.#.f.p.w 0 e e w 1.4.q.e.e.e.e.e.e.e.e.e.e.e.e.e.e.e.e.e.e.",
"e.e.e.e.e.e.e.e.e.e.e.e.e.e.e.e.e.e.e.3   # a     e.e.        6.5.5.7.7.l.d.        .       e.e.e.e.e.e.e.e.e.e.e.e.e.e.e.e.e.e.",
"e.e.e.e.e.e.e.e.e.e.e.e.e.e.e.e.e.e.e.m / [ - e.e.e.e.e.e.e.e.f 8 y f 0 0 2 e.e.e.e.e.e.e.e.e.e.e.e.e.e.e.e.e.e.e.e.e.e.e.e.e.e.",
"e.e.e.e.e.e.e.e.e.e.e.e.e.e.e.e.e.e.e.N H T - e.e.e.e.e.e.e.e.e.e.e.e.e.e.e.e.e.e.e.e.e.e.e.e.e.e.e.e.e.e.e.e.e.e.e.e.e.e.e.e.e.",
"e.e.e.e.e.e.e.e.e.e.e.e.e.e.e.e.e.e.e.V F R c e.e.e.e.e.e.e.e.e.e.e.e.e.e.e.e.e.e.e.e.e.e.e.e.e.e.e.e.e.e.e.e.e.e.e.e.e.e.e.e.e.",
"e.e.e.e.e.e.e.e.e.e.e.e.e.e.e.e.e.e.e.Z F T ; e.e.e.e.e.e.e.e.e.e.e.e.e.e.e.e.e.e.e.e.e.e.e.e.e.e.e.e.e.e.e.e.e.e.e.e.e.e.e.e.e.",
"e.e.e.e.e.e.e.e.e.e.e.e.e.e.e.e.e.e.e.n F T ; e.e.e.e.e.e.e.e.e.e.e.e.e.e.e.e.e.e.e.e.e.e.e.e.e.e.e.e.e.e.e.e.e.e.e.e.e.e.e.e.e.",
"e.e.e.e.e.e.e.e.e.e.e.e.w.w.w.w.e.e.e.b / ` > e.e.e.e.e.e.e.e.e.e.e.e.e.e.e.e.e.e.e.e.e.e.e.e.e.e.e.e.e.e.e.e.e.e.e.e.e.e.e.e.e.",
"e.e.e.e.e.e.e.e.e.e.e.e.w.w.w.w.e.e.e.b ~ ` > e.e.e.e.e.e.e.e.e.e.e.e.e.e.e.e.e.e.e.e.e.e.e.e.e.e.e.e.e.e.e.e.e.e.e.e.e.e.e.e.e.",
"e.e.e.e.e.e.e.e.e.e.e.e.w.w.w.w.e.e.e.b z.b.> e.e.e.e.e.e.e.e.e.e.e.e.e.e.e.e.e.e.e.e.e.e.e.e.e.e.e.e.e.e.e.e.e.e.e.e.e.e.e.e.e.",
"e.e.e.e.e.e.e.e.e.e.e.e.w.w.w.w.e.e.e.b / ] - e.e.e.e.e.e.e.e.e.e.e.e.e.e.e.e.e.e.e.e.e.e.e.e.e.e.e.e.e.e.e.e.e.e.e.e.e.e.e.e.e.",
"w.w.w.w.e.e.e.e.e.e.e.e.w.w.w.w.e.e.e.V A U - e.w.w.w.w.e.e.e.e.e.e.e.e.e.e.e.e.e.e.e.e.e.e.e.e.e.e.e.e.e.e.e.e.e.e.e.e.e.e.e.e.",
"w.w.w.w.e.e.e.e.e.e.e.e.w.w.w.w.e.e.e.V A U > e.w.w.w.w.e.e.e.e.e.e.e.e.e.e.e.e.e.e.e.e.e.e.e.e.e.e.e.e.e.e.e.e.e.e.e.e.e.e.e.e.",
"w.w.w.w.e.e.e.e.e.e.e.e.w.w.w.w.e.e.e.v F Y - e.w.w.w.w.e.e.e.e.e.e.e.e.e.e.e.e.e.e.e.e.e.e.e.e.e.e.e.e.e.e.e.e.e.e.e.e.e.e.e.e.",
"w.w.w.w.e.e.e.e.e.e.e.e.w.w.w.w.e.e.e.b F T : e.w.w.w.w.e.e.e.e.e.e.e.e.e.e.e.e.e.e.e.e.e.e.e.e.e.e.e.e.e.e.e.e.e.e.e.e.e.e.e.e.",
"e.e.e.e.w.w.w.w.e.e.e.e.e.e.e.e.e.e.e.v F Y : w.e.e.e.e.e.e.e.e.e.e.e.e.e.e.e.e.e.e.e.e.e.e.e.e.e.e.e.e.e.e.e.e.e.e.e.e.e.e.e.e.",
"e.e.e.e.w.w.w.w.e.e.e.e.e.e.e.e.e.e.e.; S J o w.e.e.e.e.e.e.e.e.e.e.e.e.e.e.e.e.e.e.e.e.e.e.e.e.e.e.e.e.e.e.e.e.e.e.e.e.e.e.e.e.",
"e.e.e.e.w.w.w.w.e.e.e.e.e.e.e.e.e.X B ! W _ G - = e.e.e.e.e.e.e.e.e.e.e.e.e.e.e.e.e.e.e.e.e.e.e.e.e.e.e.e.e.e.e.e.e.e.e.e.e.e.e.",
"e.e.e.e.w.w.w.w.e.e.e.e.e.e.e.e.e.X B M x C * * * e.e.e.e.e.e.e.e.e.e.e.e.e.e.e.e.e.e.e.e.e.e.e.e.e.e.e.e.e.e.e.e.e.e.e.e.e.e.e.",
"e.e.e.e.e.e.e.e.e.e.e.e.e.e.e.e.e.e.e.e.e.e.e.e.e.e.e.e.e.e.e.e.e.e.e.e.e.e.e.e.e.e.e.e.e.e.e.e.e.e.e.e.e.e.e.e.e.e.e.e.e.e.e.e.",
"e.e.e.e.e.e.e.e.e.e.e.e.e.e.e.e.e.e.e.e.e.e.e.e.e.e.e.e.e.e.e.e.e.e.e.e.e.e.e.e.e.e.e.e.e.e.e.e.e.e.e.e.e.e.e.e.e.e.e.e.e.e.e.e.",
"e.e.e.e.e.e.e.e.e.e.e.e.e.e.e.e.e.e.e.e.e.e.e.e.e.e.e.e.e.e.e.e.e.e.e.e.e.e.e.e.e.e.e.e.e.e.e.e.e.e.e.e.e.e.e.e.e.e.e.e.e.e.e.e.",
"e.e.e.e.e.e.e.e.e.e.e.e.e.e.e.e.e.e.e.e.e.e.e.e.e.e.e.e.e.e.e.e.e.e.e.e.e.e.e.e.e.e.e.e.e.e.e.e.e.e.e.e.e.e.e.e.e.e.e.e.e.e.e.e.",
"e.e.e.e.e.e.e.e.e.e.e.e.e.e.e.e.e.e.e.e.e.e.e.e.e.e.e.e.e.e.e.e.e.e.e.e.e.e.e.e.e.e.e.e.e.e.e.e.j.j.j.j.e.e.e.e.e.e.e.e.e.e.e.e.",
"e.e.e.e.e.e.e.e.e.e.e.e.e.e.e.e.e.e.e.e.e.e.e.e.e.e.e.e.e.e.e.e.e.e.e.e.e.e.e.e.e.e.e.e.e.e.e.e.j.j.j.j.e.e.e.e.e.e.e.e.e.e.e.e.",
"e.e.e.e.e.e.e.e.e.e.e.e.e.e.e.e.e.e.e.e.e.e.e.e.e.e.e.e.e.e.e.e.e.e.e.e.e.e.e.e.e.e.e.e.e.e.e.e.j.j.j.j.e.e.e.e.e.e.e.e.e.e.e.e.",
"e.e.e.e.e.e.e.e.e.e.e.e.e.e.e.e.e.e.e.e.e.e.e.e.e.e.e.e.e.e.e.e.e.e.e.e.e.e.e.e.e.e.e.e.e.e.e.e.j.j.j.j.e.e.e.e.e.e.e.e.e.e.e.e.",
"e.e.e.e.e.e.e.e.e.e.e.e.e.e.e.e.e.e.e.e.e.e.e.e.e.e.e.e.e.e.e.e.e.e.e.e.j.j.j.j.e.e.e.e.e.e.e.e.j.j.j.j.e.e.e.e.e.e.e.e.j.j.j.j.",
"e.e.e.e.e.e.e.e.e.e.e.e.e.e.e.e.e.e.e.e.e.e.e.e.e.e.e.e.e.e.e.e.e.e.e.e.j.j.j.j.e.e.e.e.e.e.e.e.j.j.j.j.e.e.e.e.e.e.e.e.j.j.j.j.",
"e.e.e.e.e.e.e.e.e.e.e.e.e.e.e.e.e.e.e.e.e.e.e.e.e.e.e.e.e.e.e.e.e.e.e.e.j.j.j.j.e.e.e.e.e.e.e.e.j.j.j.j.e.e.e.e.e.e.e.e.j.j.j.j.",
"e.e.e.e.e.e.e.e.e.e.e.e.e.e.e.e.e.e.e.e.e.e.e.e.e.e.e.e.e.e.e.e.e.e.e.e.j.j.j.j.e.e.e.e.e.e.e.e.j.j.j.j.e.e.e.e.e.e.e.e.j.j.j.j.",
"e.e.e.e.e.e.e.e.e.e.e.e.e.e.e.e.e.e.e.e.e.e.e.e.e.e.e.e.e.e.e.e.e.e.e.e.e.e.e.e.j.j.j.j.e.e.e.e.e.e.e.e.e.e.e.e.j.j.j.j.e.e.e.e.",
"e.e.e.e.e.e.e.e.e.e.e.e.e.e.e.e.e.e.e.e.e.e.e.e.e.e.e.e.e.e.e.e.e.e.e.e.e.e.e.e.j.j.j.j.e.e.e.e.e.e.e.e.e.e.e.e.j.j.j.j.e.e.e.e.",
"e.e.e.e.e.e.e.e.e.e.e.e.e.e.e.e.e.e.e.e.e.e.e.e.e.e.e.e.e.e.e.e.e.e.e.e.e.e.e.e.j.j.j.j.e.e.e.e.e.e.e.e.e.e.e.e.j.j.j.j.e.e.e.e.",
"e.e.e.e.e.e.e.e.e.e.e.e.e.e.e.e.e.e.e.e.e.e.e.e.e.e.e.e.e.e.e.e.e.e.e.e.e.e.e.e.j.j.j.j.e.e.e.e.e.e.e.e.e.e.e.e.j.j.j.j.e.e.e.e."
};
