/* XPM */
static char *_3d1881d3b3d49a4c4445141a955731esnkg76DnujCclVle[] = {
/* columns rows colors chars-per-pixel */
"64 64 3 1 ",
"  c #40B088",
". c #70C8A0",
"X c #88D8B8",
/* pixels */
"................................................................",
"................................................................",
"................................................................",
"................................................................",
"................................................................",
"................................................................",
"................................................................",
"................................................................",
"................................................................",
"................................................................",
"................................................................",
"................................................................",
"....................    ........................................",
"....................    ........................................",
"....................    ........................................",
"....................    ........................................",
"........    ........    ........    ............................",
"........    ........    ........    ............................",
"........    ........    ........    ............................",
"........    ........    ........    ............................",
"............    ............    ................................",
"............    ............    ................................",
"............    ............    ................................",
"............    ............    ................................",
"................................................................",
"................................................................",
"................................................................",
"................................................................",
"................................................................",
"................................................................",
"................................................................",
"................................................................",
"................................................................",
"................................................................",
"................................................................",
"................................................................",
"............    ................................................",
"............    ................................................",
"............    ................................................",
"............    ................................................",
"    ........    ........    ....................................",
"    ........    ........    ....................................",
"    ........    ........    ....................................",
"    ........    ........    ....................................",
"....    ............    ........................................",
"....    ............    ........................................",
"....    ............    ........................................",
"....    ............    ........................................",
"................................................................",
"................................................................",
"................................................................",
"................................................................",
"................................................XXXX............",
"................................................XXXX............",
"................................................XXXX............",
"................................................XXXX............",
"....................................XXXX........XXXX........XXXX",
"....................................XXXX........XXXX........XXXX",
"....................................XXXX........XXXX........XXXX",
"....................................XXXX........XXXX........XXXX",
"........................................XXXX............XXXX....",
"........................................XXXX............XXXX....",
"........................................XXXX............XXXX....",
"........................................XXXX............XXXX...."
};
