/* XPM */
static char *_d8133d6721a4872e56c1c6816fb426bA8Z0NDg7TDcLWeNK[] = {
/* columns rows colors chars-per-pixel */
"64 64 15 1 ",
"  c black",
". c #682828",
"X c #383878",
"o c #784040",
"O c #C03838",
"+ c #A87840",
"@ c #F86848",
"# c #D89070",
"$ c #40B088",
"% c #70C8A0",
"& c #70A0C0",
"* c #88D8B8",
"= c #F8C090",
"- c #B0B0D0",
"; c #E8E8F8",
/* pixels */
"%%%%%%%%%%%%%%%%%%%%%%%%%%%%%%%%%%%%%%%%%%%%%%%%%%%%%%%%%%%%%%%%",
"%%%%%%%%%%%%%%%%%%%%%%%%%%%%%%%%%%%%%%%%%%%%%%%%%%%%%%%%%%%%%%%%",
"%%%%%%%%%%%%%%%%%%%%%......................%%%%%%%%%%%%%%%%%%%%%",
"%%%%%%%%%%%%%%%%%%%%%......................%%%%%%%%%%%%%%%%%%%%%",
"%%%%%%%%%%%%%%%%%%%%%......................%%%%%%%%%%%%%%%%%%%%%",
"%%%%%%%%%%%%%%%%%%%%%......................%%%%%%%%%%%%%%%%%%%%%",
"%%%%%%%%%%%%%%%%%....@@@@@@@@@@@@@@@@@@@@@@....%%%%%%%%%%%%%%%%%",
"%%%%%%%%%%%%%%%%%....@@@@@@@@@@@@@@@@@@@@@@....%%%%%%%%%%%%%%%%%",
"%%%%%%%%%%%%%%%%%....@@@@@@@@@@@@@@@@@@@@@@....%%%%%%%%%%%%%%%%%",
"%%%%%%%%%%%%%%%%%....@@@@@@@@@@@@@@@@@@@@@@....%%%%%%%%%%%%%%%%%",
"%%%%%%%%%%%%%%%%%....@@@@@@@@@@@@@@@@@@@@@@....%%%%%%%%%%%%%%%%%",
"%%%%%%%%%%%%%%%%%....@@@@@@@@@@@@@@@@@@@@@@....%%%%%%%%%%%%%%%%%",
"%%%%%%%%%%%%%%%%%....@@@@@@@@@@@@@@@@@@@@@@....%%%%%%%%%%%%%%%%%",
"%%%%%%%%%%%%%%%%%....@@@@@@@@@@@@@@@@@@@@@@....%%%%%%%%%%%%%%%%%",
"%%%%%%%%%%%%%%   OOOO@@@@@@@@@@@@@@@@@@@@@@OOOO   %%%%%%%%%%%%%%",
"%%%%%%%%%%%%%%   OOOO@@@@@@@@@@@@@@@@@@@@@@OOOO   %%%%%%%%%%%%%%",
"%%%%%%%%$$$$%%   OOOO@@@@@@@@@@@@@@@@@@@@@@OOOO   %%%%%%%%%%%%%%",
"%%%%%%%%$$$$%%   OOOOOOOOOOO;;;;;;;;OOOOOOOOOOO   %%%%%%%%%%%%%%",
"%%%%%%%%$$$$%%   OOOOOOOOOOO;;;;;;;;OOOOOOOOOOO   %%%%%%%%%%%%%%",
"%%%%%%%%$$$$%%   OOOOOOOOOOO;;;;;;;;OOOOOOOOOOO   %%%%%%%%%%%%%%",
"%%%%%%%%%%%%$$   OOOOOOOOOOO;;;;;;;;OOOOOOOOOOO   %%%%%%%%%%%%%%",
"%%%%%%%%%%    +++....OOOO---OOOOOOOO---OOOO....+++    %%%%%%%%%%",
"%%%%%%%%%%    +++....OOOO---OOOOOOOO---OOOO....+++    %%%%%%%%%%",
"%%%%%%%%%%    +++....OOOO---OOOOOOOO---OOOO....+++    %%%%%%%%%%",
"%%%%%%%%%%    +++....OOOO---OOOOOOOO---OOOO....+++    %%%%%%%%%%",
"%%%%%%%%%%    ###    ;;;;;;;;;;;;;;;;;;;;;;    ###    %%%%%%%%%%",
"%%%%%%%%%%    ###    ;;;;;;;;;;;;;;;;;;;;;;    ###    %%%%%%%%%%",
"%%%%%%%%%%    ###    ;;;;;;;;;;;;;;;;;;;;;;    ###    %%%%%%%%%%",
"%%%%%%%%%%%%%%   ooooXXXX   XXXXXXXX   XXXXoooo   %%%%%%%%%%%%%%",
"%%%%%%%%%%%%%%   ooooXXXX   XXXXXXXX   XXXXoooo   %%%%%%%%%%%%%%",
"%%%%%%%%%%%%%%   ooooXXXX   XXXXXXXX   XXXXoooo   %%%%%%%%%%%%%%",
"%%%%%%%%%%%%%%   ooooXXXX   XXXXXXXX   XXXXoooo   %%%%%%%%%%%%%%",
"%%%%%%%%%%%%%%%%%oooo####   ========   ####oooo%%%%%%%%%%%%%%%%%",
"%%%%%%%%%%%%%%%%%oooo####   ========   ####oooo%%%%%%%%%%%%%%%%%",
"%%%%%%%%%%%%%%%%%oooo####   ========   ####oooo%%%%%%%%%%%%%%%%%",
"%%%%%%%%%%%%%%%%%oooo####   ========   ####oooo%%%%%%%%%%%%%%%%%",
"%%%%%%%%%%%%$$   XXXXoooo##############ooooXXXX   %%%%%%%%%%%%%%",
"%%%%%%%%%%%%$$   XXXXoooo##############ooooXXXX   %%%%%%%%%%%%%%",
"%%%%%%%%%%%%$$   XXXXoooo##############ooooXXXX   %%%%%%%%%%%%%%",
"%%%%%%%%%%oooo===XXXXOOOO              OOOOXXXX===oooo%%%%%%%%%%",
"$$$$%%%%%%oooo===XXXXOOOO              OOOOXXXX===oooo%%%%%%%%%%",
"$$$$%%%%%%oooo===XXXXOOOO              OOOOXXXX===oooo%%%%%%%%%%",
"$$$$%%%%%%oooo===XXXXOOOO              OOOOXXXX===oooo%%%%%%%%%%",
"$$$$%%%%%%oooo#######OOOOOOO--------OOOOOOO#######oooo%%%%%%%%%%",
"%%%%$$$$%%oooo#######OOOOOOO--------OOOOOOO#######oooo%%%%%%%%%%",
"%%%%$$$$%%oooo#######OOOOOOO--------OOOOOOO#######oooo%%%%%%%%%%",
"%%%%$$$$%%oooo#######OOOOOOO--------OOOOOOO#######oooo%%%%%%%%%%",
"%%%%$$$$%%%%%%ooo    OOOO@@@;;;;;;;;@@@OOOO    ooo%%%%%%%%%%%%%%",
"%%%%%%%%%%%%%%ooo    OOOO@@@;;;;;;;;@@@OOOO    ooo%%%%%%%%%%%%%%",
"%%%%%%%%%%%%%%ooo    OOOO@@@;;;;;;;;@@@OOOO    ooo%%%%%%%%%%%%%%",
"%%%%%%%%%%%%%%%%%    &&&&&&&        &&&&&&&    %%%%%%%%%%%%%%%%%",
"%%%%%%%%%%%%%%%%%    &&&&&&&        &&&&&&&    %%%%%%%%%%%%%%%%%",
"%%%%%%%%%%%%%%%%%    &&&&&&&        &&&&&&&    %****%%%%%%%%%%%%",
"%%%%%%%%%%%%%%%%%    &&&&&&&        &&&&&&&    %****%%%%%%%%%%%%",
"%%%%%%%%%%%%%%%%%    XXXX   %%%%%%%%   XXXX    %****%%%%%%%%%%%%",
"%%%%%%%%%%%%%%%%%    XXXX   %%%%%%%%   XXXX    %****%%%%%%%%%%%%",
"%%%%%%%%%%%%%%%%%    XXXX   %%%%%%%%   XXXX    %****%%%%%%%%****",
"%%%%%%%%%%%%%%%%%    XXXX   %%%%%%%%   XXXX    %****%%%%%%%%****",
"%%%%%%%%%%%%%%%%%%%%%    %%%%%%%%%%%***    %%%%%****%%%%%%%%****",
"%%%%%%%%%%%%%%%%%%%%%    %%%%%%%%%%%***    %%%%%****%%%%%%%%****",
"%%%%%%%%%%%%%%%%%%%%%    %%%%%%%%%%%%%%    *%%%%%%%%%%%%****%%%%",
"%%%%%%%%%%%%%%%%%%%%%%%%%%%%%%%%%%%%%%%%****%%%%%%%%%%%%****%%%%",
"%%%%%%%%%%%%%%%%%%%%%%%%%%%%%%%%%%%%%%%%****%%%%%%%%%%%%****%%%%",
"%%%%%%%%%%%%%%%%%%%%%%%%%%%%%%%%%%%%%%%%****%%%%%%%%%%%%****%%%%"
};
