/* XPM */
static char *_c26a69c22e84b22922389306666ed8axhhnJMpmKuKhq9xH[] = {
/* columns rows colors chars-per-pixel */
"64 64 6 1 ",
"  c #385810",
". c #389030",
"X c #18A068",
"o c #40B088",
"O c #70C8A0",
"+ c #A0E0C0",
/* pixels */
"OOOOOOOOOOOOooooOOOOOOOOOOOOoooo....OOOOOOOOOOOOooooOOOOOOOOOOOO",
"OOOOOOOOOOOOooooOOOOOOOOOOOOoooo....OOOOOOOOOOOOooooOOOOOOOOOOOO",
"OOOOOOOOOOOOooooOOOOOOOOOOOOoooo....OOOOOOOOOOOOooooOOOOOOOOOOOO",
"OOOOOOOOOOOOooooOOOOOOOOOOOOoooo....OOOOOOOOOOOOooooOOOOOOOOOOOO",
"OOOOooooOOOOOOOOOOOOOOOOoooo....++++....OOOOOOOOOOOOOOOOOOOOoooo",
"OOOOooooOOOOOOOOOOOOOOOOoooo....++++....OOOOOOOOOOOOOOOOOOOOoooo",
"OOOOooooOOOOOOOOOOOOOOOOoooo....++++....OOOOOOOOOOOOOOOOOOOOoooo",
"OOOOooooOOOOOOOOOOOOOOOOoooo....++++....OOOOOOOOOOOOOOOOOOOOoooo",
"OOOOOOOO............oooooooo++++++++....oooo    ....    OOOOOOOO",
"OOOOOOOO............oooooooo++++++++....oooo    ....    OOOOOOOO",
"OOOOOOOO............oooooooo++++++++....oooo    ....    OOOOOOOO",
"OOOOOOOO............oooooooo++++++++....oooo    ....    OOOOOOOO",
"OOOOXXXX++++++++++++........++++OOOO....    ++++++++++++    oooo",
"OOOOXXXX++++++++++++........++++OOOO....    ++++++++++++    oooo",
"OOOOXXXX++++++++++++........++++OOOO....    ++++++++++++    oooo",
"OOOOXXXX++++++++++++........++++OOOO....    ++++++++++++    oooo",
"OOOOOOOOXXXX++++++++++++....OOOOOOOO    ooooOOOO++++    ....oooo",
"OOOOOOOOXXXX++++++++++++....OOOOOOOO    ooooOOOO++++    ....oooo",
"OOOOOOOOXXXX++++++++++++....OOOOOOOO    ooooOOOO++++    ....oooo",
"OOOOOOOOXXXX++++++++++++....OOOOOOOO    ooooOOOO++++    ....oooo",
"OOOOOOOOOOOOXXXXOOOOOOOOOOOO....oooo    oooooooo........ooooOOOO",
"OOOOOOOOOOOOXXXXOOOOOOOOOOOO....oooo    oooooooo........ooooOOOO",
"OOOOOOOOOOOOXXXXOOOOOOOOOOOO....oooo    oooooooo........ooooOOOO",
"OOOOOOOOOOOOXXXXOOOOOOOOOOOO....oooo    oooooooo........ooooOOOO",
"OOOOXXXXXXXXXXXX........OOOO............oooo                OOOO",
"OOOOXXXXXXXXXXXX........OOOO............oooo                OOOO",
"OOOOXXXXXXXXXXXX........OOOO............oooo                OOOO",
"OOOOXXXXXXXXXXXX........OOOO............oooo                OOOO",
"....++++++++++++OOOO........OOOO    oooo    ooooOOOOOOOOOOOO    ",
"....++++++++++++OOOO........OOOO    oooo    ooooOOOOOOOOOOOO    ",
"....++++++++++++OOOO........OOOO    oooo    ooooOOOOOOOOOOOO    ",
"....++++++++++++OOOO........OOOO    oooo    ooooOOOOOOOOOOOO    ",
"oooo....++++OOOOOOOOoooo........        oooooooooooooooo    oooo",
"oooo....++++OOOOOOOOoooo........        oooooooooooooooo    oooo",
"oooo....++++OOOOOOOOoooo........        oooooooooooooooo    oooo",
"oooo....++++OOOOOOOOoooo........        oooooooooooooooo    oooo",
"OOOOoooo....oooooooooooooooo        ............        ........",
"OOOOoooo....oooooooooooooooo        ............        ........",
"OOOOoooo....oooooooooooooooo        ............        ........",
"OOOOoooo....oooooooooooooooo        ............        ........",
"OOOOOOOOoooo........                                ........oooo",
"OOOOOOOOoooo........                                ........oooo",
"OOOOOOOOoooo........                                ........oooo",
"OOOOOOOOoooo........                                ........oooo",
"OOOOoooo....OOOOOOOOoooo    ....        ....oooooooo    ooooOOOO",
"OOOOoooo....OOOOOOOOoooo    ....        ....oooooooo    ooooOOOO",
"OOOOoooo....OOOOOOOOoooo    ....        ....oooooooo    ooooOOOO",
"OOOOoooo....OOOOOOOOoooo    ....        ....oooooooo    ooooOOOO",
"OOOO....OOOOOOOOoooo................    ............oooo    oooo",
"OOOO....OOOOOOOOoooo................    ............oooo    oooo",
"OOOO....OOOOOOOOoooo................    ............oooo    oooo",
"OOOO....OOOOOOOOoooo................    ............oooo    oooo",
"oooo....                oooooooooooo....                    ....",
"oooo....                oooooooooooo....                    ....",
"oooo....                oooooooooooo....                    ....",
"oooo....                oooooooooooo....                    ....",
"oooooooo................    oooo....    ........................",
"oooooooo................    oooo....    ........................",
"oooooooo................    oooo....    ........................",
"oooooooo................    oooo....    ........................",
"OOOOOOOOoooooooo............        ............ooooooooOOOOOOOO",
"OOOOOOOOoooooooo............        ............ooooooooOOOOOOOO",
"OOOOOOOOoooooooo............        ............ooooooooOOOOOOOO",
"OOOOOOOOoooooooo............        ............ooooooooOOOOOOOO"
};
